<svg xmlns="http://www.w3.org/2000/svg" viewBox="0 0 450 422">
  <g fill="none" fill-rule="evenodd">
    <path fill="#B4EDA0" fill-opacity=".1" d="M0 0h450v422H0z"/>
    <path fill="#B4EDA0" fill-opacity=".4" d="M0 0h450v247H0z"/>
    <g fill="#FFF" fill-opacity=".6">
      <path d="M520.55 234.83c.05-.48 0-.99-.14-1.46-3.13-10.4-15.44-11.68-21.34-5.2a10.5 10.5 0 0 0-2.58 5.05 4.7 4.7 0 0 1-3.35 3.68c-.64.17-1.26.4-1.85.7-1.53.78-3.4.8-4.88-.03a14.6 14.6 0 0 0-6.29-1.82c-2.05-.12-3.85-1.3-4.44-3.11-1.56-4.86-5.5-9.4-12.55-12.4-.45-.2-.94-.33-1.44-.39-11.4-1.33-19.5 3.77-22.86 10.68a4.81 4.81 0 0 1-3.68 2.6 9.62 9.62 0 0 0-3.46 1.21 5.37 5.37 0 0 1-5.89-.2c-2.52-1.9-6.16-2.75-10.4-1.63-.51.13-1 .35-1.43.64-2.52 1.7-3.97 3.73-4.6 5.8a4.66 4.66 0 0 1-3.58 3.16 6.57 6.57 0 0 0-5.3 5c-.13.6 36.94.6 111.2-.01 5.44-3.28 8.39-7.37 8.86-12.27z"/>
      <path d="M443.9 247.1c-1.34-10.71-13.3-13.42-20.21-7.85-1.6 1.3-2.74 2.9-3.4 4.63a4.88 4.88 0 0 1-3.93 3.16c-.66.08-.87-.15-1.5.06-1.64.55-3.86.55-5.26-.34-1.4-.89-3.73-2.24-5.9-2.68-2.01-.41-3.6-1.84-3.87-3.7-.73-5.03-3.85-10.08-10.32-14.03a5.14 5.14 0 0 0-1.36-.58c-11.05-2.92-19.9.97-24.39 7.33a4.97 4.97 0 0 1-4.06 2.06 9.77 9.77 0 0 0-3.63.7c-2 .8-4.32.45-5.78-1.03-2.18-2.22-5.63-3.58-10-3.08-.54.06-1.06.21-1.53.44-2.77 1.33-4.55 3.12-5.52 5.07a4.83 4.83 0 0 1-4.06 2.62c-3.55.2-6.78 2.96-6.5 7.22 0 .06 1.7.06 5.08 0h109.57c4.39.05 6.58.05 6.57 0z"/>
    </g>
    <path id="sun" fill="#B4EDA0" d="M428.7 82.75a21.39 21.39 0 1 1-42.78 0 21.39 21.39 0 0 1 42.78 0zm-21.4-24.1a24.06 24.06 0 0 0-19.33 9.76l-1.49-1.4a26.09 26.09 0 0 1 25.8-9.9l-.75 1.93a24.01 24.01 0 0 0-4.22-.38zm7.1.2l.4-1.12c.77.23 1.53.5 2.27.8l-.89 1.82c-.7-.28-1.44-.52-2.18-.74l.07-.09v-.01c.13-.2.23-.43.32-.67zm-7.1 47.99a24 24 0 0 0 6.64-.94l.92 1.84a26.14 26.14 0 0 1-30.99-36.5l1.93.7a23.92 23.92 0 0 0-2.58 10.8c0 13.3 10.8 24.1 24.09 24.1zm26.12-24.1c0 10.61-6.35 19.75-15.45 23.84l-1.1-1.73a24.12 24.12 0 0 0 14.53-22.1c0-9.03-5-16.9-12.36-21.03l1.1-1.7a26.13 26.13 0 0 1 13.28 22.73zm-54.82 0c0 2.74.38 5.37 1.1 7.87l-.8.47a29.63 29.63 0 0 1 14.42-34.41l.42.79a28.73 28.73 0 0 0-15.14 25.29zm28.7 28.72c6.84 0 13.11-2.4 18.04-6.4l.56.7a29.45 29.45 0 0 1-18.6 6.6 29.65 29.65 0 0 1-27.3-18.2l.87-.23a28.75 28.75 0 0 0 26.44 17.53zm0-57.43c-3.9 0-7.64.8-11.05 2.22l-.36-.81a29.6 29.6 0 0 1 36.61 11.8l-.84.33a28.71 28.71 0 0 0-24.35-13.54zm26.64 15.8a29.5 29.5 0 0 1-5.53 33.67l-.6-.68a28.62 28.62 0 0 0 5.37-32.5l.76-.5z"><animateTransform attributeName="transform" type="rotate" from="0 407.7 82.7" to="360 407.7 82.7" dur="20s" repeatCount="indefinite"/>
      </path>
      <style>
  #cloud1, #cloud4{
    animation: clouds 130s 0s ease infinite;
  }
  #cloud2, #cloud5{
    animation: clouds 160s 0s ease infinite;
  }
  #cloud3, #cloud6{
    animation: clouds 100s 0s ease infinite;
  } @keyframes clouds
 { 0% { transform: translatex(0px); } 50% { transform: translatex(400px); } 50.01% { transform: translatex(-550px); } 100% { transform: translatex(0px); }
  }
</style>
    <g fill-opacity="0.7" fill="#FFFFFF">
        <path id="cloud1" d="M428.105467,129.216822 L360.452785,128.597496 C360.452785,118.677164 368.536318,110.635147 378.507333,110.635147 C381.636735,110.635147 384.579075,111.428518 387.144918,112.822061 C389.828416,100.173525 401.104339,90.6767187 414.616431,90.6767187 C415.747826,76.1832107 427.866115,64.7312349 442.701417,64.7312349 C457.536718,64.7312349 469.655245,76.1832107 470.685385,90.6819211 C481.265357,90.6767187 490.38735,96.3979771 495.213606,104.861155 C496.249926,104.733932 497.298606,104.647618 498.369628,104.647618 C512.495669,104.647618 523.947005,116.040476 523.947005,130.094378 L472.816021,129.625922 L428.105467,129.216822 Z"></path>
        <path id="cloud2" d="M295.415175,136.359335 L266.602906,136.095573 C266.602906,131.870651 270.045562,128.445676 274.292069,128.445676 C275.624834,128.445676 276.877933,128.783561 277.970688,129.37705 C279.11355,123.990227 283.915797,119.945679 289.670396,119.945679 C290.15224,113.77311 295.313239,108.895884 301.631373,108.895884 C307.949507,108.895884 313.110607,113.77311 313.549328,119.947894 C318.05518,119.945679 321.940101,122.382278 323.995532,125.986619 C324.436885,125.932436 324.883502,125.895677 325.339635,125.895677 C331.355705,125.895677 336.232659,130.747725 336.232659,136.733073 L314.456734,136.533565 L295.415175,136.359335 Z" transform="translate(301.417782, 122.814478) scale(-1, 1) translate(-301.417782, -122.814478) "></path>
        <path id="cloud3" d="M254.106019,123.294729 L239,123.156441 C239,120.941352 240.804955,119.145668 243.031361,119.145668 C243.730118,119.145668 244.387107,119.322818 244.960028,119.633979 C245.559221,116.809715 248.076997,114.689194 251.094082,114.689194 C251.346709,111.45297 254.052575,108.895884 257.365117,108.895884 C260.677659,108.895884 263.383578,111.45297 263.613596,114.690356 C265.975975,114.689194 268.012804,115.966681 269.090449,117.856406 C269.321846,117.827998 269.556004,117.808726 269.79515,117.808726 C272.949323,117.808726 275.506266,120.352612 275.506266,123.490677 L264.089341,123.386076 L254.106019,123.294729 Z" transform="translate(257.253133, 116.193280) scale(-1, 1) translate(-257.253133, -116.193280) "></path>
        <path id="cloud4" d="M112.38594,62.7142316 L83.629753,62.5799374 C83.629753,60.4288216 87.0657086,58.6849979 91.3039496,58.6849979 C92.6341208,58.6849979 93.8847807,58.8570317 94.975408,59.1592063 C96.1160454,56.4165092 100.908945,54.3572302 106.652343,54.3572302 C107.133249,51.214471 112.284202,48.7312349 118.590038,48.7312349 C124.895874,48.7312349 130.046928,51.214471 130.484795,54.3583583 C134.981877,54.3572302 138.859236,55.5978228 140.910666,57.4329706 C141.35116,57.4053836 141.796908,57.3866676 142.252153,57.3866676 C148.256513,57.3866676 153.123973,59.8570845 153.123973,62.90452 L131.390435,62.8029405 L112.38594,62.7142316 Z"></path>
        <path id="cloud5" d="M55.9502296,69.427117 L47,69.3451822 C47,68.0327545 48.0694252,66.9688219 49.388558,66.9688219 C49.8025676,66.9688219 50.1918297,67.0737823 50.5312824,67.2581435 C50.8863005,65.5847834 52.3780683,64.3283868 54.1656741,64.3283868 C54.315354,62.4109429 55.9185641,60.8958838 57.8812262,60.8958838 C59.8438883,60.8558838 61.4471299,62.4109429 61.5834141,64.3290751 C62.9831099,64.3283868 64.1899199,65.0852907 64.8284179,66.2049415 C64.9655197,66.1881103 65.1042566,66.1766914 65.2459494,66.1766914 C67.1147785,66.1766914 68.629753,67.6839293 68.629753,69.5432148 L61.8652903,69.4812396 L55.9502296,69.427117 Z" transform="translate(57.814877, 65.219549) scale(-1, 1) translate(-57.814877, -65.219549) "></path>
        <path id="cloud6" d="M34.31034,64.0512534 L31,64.0209489 C31,63.5355332 31.3955386,63.1420262 31.8834342,63.1420262 C32.0365602,63.1420262 32.180533,63.1808469 32.3060833,63.2490349 C32.4373906,62.6301244 32.9891372,62.1654324 33.6503027,62.1654324 C33.7056634,61.4562449 34.2986282,60.8958838 35.0245402,60.8958838 C35.7504521,60.8958838 36.3434285,61.4562449 36.3938347,62.165687 C36.9115275,62.1654324 37.3578793,62.4453816 37.5940348,62.8594967 C37.6447433,62.8532715 37.6960567,62.849048 37.7484633,62.849048 C38.4396702,62.849048 39,63.4065164 39,64.0941934 L36.4980897,64.0712713 L34.31034,64.0512534 Z" transform="translate(35.000000, 62.495039) scale(-1, 1) translate(-35.000000, -62.495039) "></path>
    </g>
  </g>
</svg>