<svg xmlns="http://www.w3.org/2000/svg" width="20" height="21" viewBox="0 0 20 21">
  <g fill="#EE444D">
    <path d="M14.9838173 3.67758564C14.9838173 3.84988581 14.843491 3.98955954 14.6718434 3.98955954 14.4995759 3.98955954 14.359217 3.84926591 14.359217 3.67758564L14.359217.311973899C14.359217.140326264 14.4995759 0 14.6718434 0 14.8441109 0 14.9838173.140326264 14.9838173.311973899L14.9838173 3.67758564zM5.62437194 3.67758564C5.62437194 3.84988581 5.4840783 3.98955954 5.31239804 3.98955954 5.14009788 3.98955954 5.00042414 3.84926591 5.00042414 3.67758564L5.00042414.311973899C4.99977162.140326264 5.14009788 0 5.31239804 0 5.48404568 0 5.62437194.140326264 5.62437194.311973899L5.62437194 3.67758564zM2.73843393 7.95823817C2.56613377 7.95823817 2.42646003 7.81791191 2.42646003 7.64626427 2.42646003 7.47461664 2.56675367 7.33429038 2.73843393 7.33429038L17.2452202 7.33429038C17.4174878 7.33429038 17.5571941 7.47461664 17.5571941 7.64626427 17.5571941 7.81791191 17.4175204 7.95823817 17.2452202 7.95823817L2.73843393 7.95823817z"/>
    <path d="M.0084502447 6.84026101C.0084502447 6.66796085.148776509 6.52828711.320424144 6.52828711.492724307 6.52828711.632398042 6.66861338.632398042 6.84026101L.632398042 18.1243067C.632398042 18.4812724.779249592 18.8069821 1.0141925 19.041925 1.24978793 19.277553 1.5748124 19.4244046 1.93181077 19.4244046L18.050571 19.4244046C18.4075367 19.4244046 18.7325285 19.277553 18.9681892 19.041925 19.2037847 18.8062969 19.3506362 18.4812724 19.3506362 18.1243067L19.3506362 6.84026101C19.3506362 6.66796085 19.4902773 6.52828711 19.6626101 6.52828711 19.8349103 6.52828711 19.974584 6.66861338 19.974584 6.84026101L19.974584 18.1243067C19.974584 18.6536378 19.7579119 19.1352365 19.409429 19.483752 19.0608809 19.8323002 18.5799021 20.048907 18.0506688 20.048907L1.9332137 20.048907C1.40391517 20.048907.92228385 19.8322349.573768352 19.483752.225187602 19.1352692.0084502447 18.6529853.0084502447 18.1243393L.0084502447 6.84026101zM5.31239804 1.56176183C5.48469821 1.56176183 5.62437194 1.70143556 5.62437194 1.87373573 5.62437194 2.04603589 5.4840783 2.18570962 5.31239804 2.18570962L1.93311582 2.18570962C1.57872757 2.18570962 1.2537031 2.3332137 1.01683524 2.56946166L1.00052202 2.58446982C.77406199 2.81810767.633083197 3.13791191.633083197 3.48508972L.633083197 4.91631321 19.3512887 4.91631321 19.3512887 3.48508972C19.3512887 3.12939641 19.2037847 2.8050571 18.9682219 2.56946166L18.9532137 2.55380098C18.7195759 2.32668842 18.3997716 2.18570962 18.0512235 2.18570962L15.9184013 2.18570962C15.7461338 2.18570962 15.6064274 2.04538336 15.6064274 1.87373573 15.6064274 1.70143556 15.7467537 1.56176183 15.9184013 1.56176183L18.0512235 1.56176183C18.5655465 1.56176183 19.04 1.77125612 19.3877977 2.10867863L19.4093312 2.12825449C19.7579119 2.47676998 19.9752039 2.95709625 19.9752039 3.48508972L19.9752039 5.21980424 19.9752039 5.22828711C19.9752039 5.40058728 19.8348777 5.54026101 19.66323 5.54026101L.328907015 5.54026101.320424144 5.54026101C.148776509 5.54088091.0084502447 5.40055465.0084502447 5.22825449L.0084502447 3.4850571C.0084502447 2.97014682.217944535 2.49696574.555367047 2.14910277L.574942904 2.12756933C.92411093 1.77840131 1.40508972 1.56107667 1.93243067 1.56107667L5.31243067 1.56107667 5.31239804 1.56176183zM14.671876 1.56176183L6.55960848 1.56176183C6.38730832 1.56176183 6.24763458 1.70143556 6.24763458 1.87373573 6.24763458 2.04603589 6.38792822 2.18570962 6.55960848 2.18570962L14.671876 2.18570962C14.8441436 2.18570962 14.9838499 2.04538336 14.9838499 1.87373573 14.9838173 1.70140294 14.8435237 1.56176183 14.671876 1.56176183z"/>
  </g>
</svg>
