<svg xmlns="http://www.w3.org/2000/svg" width="11" height="20" viewBox="0 0 11 20" data-v-0cecff7e=""><path fill="#fff" fill-rule="evenodd" d="M55.2382812,433.140625 L55.2382812,436.234375 L53.3984375,436.234375 C52.7265591,436.234375 52.2734387,436.374999 52.0390625,436.65625 C51.8046863,436.937501 51.6875,437.359372 51.6875,437.921875 L51.6875,440.136719 L55.1210938,440.136719 L54.6640625,443.605469 L51.6875,443.605469 L51.6875,452.5 L48.1015625,452.5 L48.1015625,443.605469 L45.1132812,443.605469 L45.1132812,440.136719 L48.1015625,440.136719 L48.1015625,437.582031 C48.1015625,436.128899 48.5078084,435.001957 49.3203125,434.201172 C50.1328166,433.400387 51.214837,433 52.5664062,433 C53.7148495,433 54.6054656,433.046875 55.2382812,433.140625 Z" transform="translate(-45 -433)" data-v-0cecff7e=""></path></svg>