<svg xmlns="http://www.w3.org/2000/svg" width="19" height="15" viewBox="0 0 19 15" data-v-0cecff7e=""><path fill="#fff" fill-rule="evenodd" d="M58.984375,537.78125 C58.4609349,538.546879 57.8281287,539.199216 57.0859375,539.738281 C57.09375,539.847657 57.0976562,540.011718 57.0976562,540.230469 C57.0976562,541.246099 56.9492202,542.259761 56.6523438,543.271484 C56.3554673,544.283208 55.9042999,545.253902 55.2988281,546.183594 C54.6933563,547.113286 53.9726604,547.935543 53.1367188,548.650391 C52.3007771,549.365238 51.2929746,549.935545 50.1132812,550.361328 C48.9335879,550.787112 47.6718817,551 46.328125,551 C44.2109269,551 42.2734463,550.433599 40.515625,549.300781 C40.7890639,549.332031 41.0937483,549.347656 41.4296875,549.347656 C43.1875088,549.347656 44.7538994,548.808599 46.1289062,547.730469 C45.3085896,547.714844 44.574222,547.462893 43.9257812,546.974609 C43.2773405,546.486326 42.8320325,545.863285 42.5898438,545.105469 C42.8476575,545.144531 43.0859364,545.164062 43.3046875,545.164062 C43.6406267,545.164062 43.9726546,545.121094 44.3007812,545.035156 C43.4257769,544.855468 42.7011747,544.419925 42.1269531,543.728516 C41.5527315,543.037106 41.265625,542.23438 41.265625,541.320312 L41.265625,541.273438 C41.7968777,541.570314 42.3671845,541.730469 42.9765625,541.753906 C42.4609349,541.410155 42.0507828,540.96094 41.7460938,540.40625 C41.4414047,539.85156 41.2890625,539.250003 41.2890625,538.601562 C41.2890625,537.914059 41.4609358,537.277347 41.8046875,536.691406 C42.7500047,537.855475 43.9003838,538.787106 45.2558594,539.486328 C46.6113349,540.18555 48.0624923,540.574218 49.609375,540.652344 C49.5468747,540.355467 49.515625,540.066408 49.515625,539.785156 C49.515625,538.738276 49.8847619,537.845707 50.6230469,537.107422 C51.3613318,536.369137 52.253901,536 53.3007812,536 C54.3945367,536 55.3164025,536.398434 56.0664062,537.195312 C56.917973,537.031249 57.7187462,536.726565 58.46875,536.28125 C58.1796861,537.179692 57.6250041,537.874998 56.8046875,538.367188 C57.5312536,538.289062 58.2578089,538.093752 58.984375,537.78125 Z" transform="translate(-40 -536)" data-v-0cecff7e=""></path></svg>