<?xml version="1.0" encoding="iso-8859-1"?>
<!-- Generator: Adobe Illustrator 16.0.0, SVG Export Plug-In . SVG Version: 6.00 Build 0)  -->
<!DOCTYPE svg PUBLIC "-//W3C//DTD SVG 1.1//EN" "http://www.w3.org/Graphics/SVG/1.1/DTD/svg11.dtd">
<svg xmlns="http://www.w3.org/2000/svg" xmlns:xlink="http://www.w3.org/1999/xlink" version="1.1" id="Capa_1" x="0px" y="0px" width="512px" height="512px" viewBox="0 0 521.886 521.886" style="enable-background:new 0 0 521.886 521.886;" xml:space="preserve">
<g>
	<path d="M494.03,228.989l-68.72-23.735l-39.809-67.593c-13.327-21.001-22.402-27.855-62.358-27.855H27.866   C12.479,109.807,0,122.286,0,137.662v148.169v26.527v14.6c0,15.381,12.479,27.865,27.866,27.865h14.788   c1.836-30.591,27.152-54.854,58.201-54.854c31.048,0,56.363,24.263,58.202,54.854h200.24c1.106-18.06,10.519-35.368,26.973-45.781   c27.237-17.258,63.3-9.176,80.557,18.058c5.473,8.646,8.383,18.179,8.952,27.724h18.255c15.387,0,27.853-12.484,27.853-27.865   v-70.103C521.886,241.463,510.474,234.41,494.03,228.989z M389.464,212.847H262.479c-1.908,0-3.438-1.529-3.438-3.423v-67.431   c0-1.894,1.529-3.423,3.438-3.423h90.94c1.882,0,4.687,0.7,6.074,3.423l33.39,67.426   C392.883,211.317,391.357,212.847,389.464,212.847z M516.983,298.952c0,5.145-4.169,9.315-9.313,9.315h-28.717   c-5.144,0-9.313-4.171-9.313-9.315v-20.958c0-5.144,4.17-9.312,9.313-9.312h28.717c5.145,0,9.313,4.169,9.313,9.312V298.952z    M100.155,306.174c-29.2,0-52.957,23.762-52.957,52.958c0,29.2,23.756,52.947,52.957,52.947c29.198,0,52.946-23.747,52.946-52.947   C153.101,329.936,129.354,306.174,100.155,306.174z M100.155,395.276c-19.944,0-36.146-16.215-36.146-36.138   c0-19.924,16.211-36.141,36.146-36.141c19.931,0,36.137,16.217,36.137,36.141C136.292,379.061,120.086,395.276,100.155,395.276z    M417.745,306.174c-29.2,0-52.96,23.762-52.96,52.958c0,29.2,23.76,52.947,52.96,52.947c29.197,0,52.953-23.747,52.953-52.947   C470.698,329.936,446.942,306.174,417.745,306.174z M417.745,395.276c-19.937,0-36.147-16.215-36.147-36.138   c0-19.924,16.217-36.141,36.147-36.141c19.938,0,36.141,16.217,36.141,36.141C453.885,379.061,437.678,395.276,417.745,395.276z" fill="#FFFFFF"/>
</g>
<g>
</g>
<g>
</g>
<g>
</g>
<g>
</g>
<g>
</g>
<g>
</g>
<g>
</g>
<g>
</g>
<g>
</g>
<g>
</g>
<g>
</g>
<g>
</g>
<g>
</g>
<g>
</g>
<g>
</g>
</svg>
