<svg xmlns="http://www.w3.org/2000/svg" width="16" height="11" viewBox="0 0 16 11" data-v-b2870de0=""><path fill="#fff" d="M101.981212,22.1614545 C102.196485,21.9461818 102.535394,21.9461818 102.750667,22.1614545 C102.958667,22.3694545 102.958667,22.7156364 102.750667,22.9231515 L98.8490909,26.8247273 L111.723758,26.8247273 C112.023879,26.8247273 112.270182,27.0632727 112.270182,27.3633939 C112.270182,27.6635152 112.023879,27.9098182 111.723758,27.9098182 L98.8490909,27.9098182 L102.750667,31.8041212 C102.958667,32.0193939 102.958667,32.3660606 102.750667,32.5735758 C102.535394,32.7888485 102.196485,32.7888485 101.981212,32.5735758 L97.156,27.7483636 C96.948,27.5403636 96.948,27.1941818 97.156,26.9866667 L101.981212,22.1614545 Z" transform="rotate(-180 56.135 16.368)" data-v-b2870de0=""></path></svg>