<?xml version="1.0"?>
<svg xmlns="http://www.w3.org/2000/svg" height="512px" viewBox="-28 0 512 512.00003" width="512px"><path d="m373.695312.0585938c-4.820312.4179682-9.140624 3.1406252-11.605468 7.3046872l-42.351563 71.585938c-2.011719 3.398437-2.601562 7.449219-1.644531 11.277343l4.445312 17.773438-2.910156-1.453125c-7.25-3.628906-16.074218-.835937-19.914062 6.308594-19.441406 36.125-29.714844 76.902343-29.714844 117.929687 0 38.4375 9.085938 76.929688 26.277344 111.308594l34.074218 68.148438c-.230468 5.910156-.351562 11.816406-.351562 17.699218v69.058594c0 8.285156 6.714844 15 15 15s15-6.714844 15-15c0 0 .097656-79.320312.285156-84.464844 55.835938-50.304687 89.652344-119.148437 95.441406-194.675781 5.980469-77.972656-18.644531-153.484375-69.335937-212.621094-3.152344-3.675781-7.875-5.601562-12.695313-5.1796872zm52.121094 215.5078122c-4.308594 56.199219-25.910156 108.261719-61.710937 150.136719l10.820312-108.210937c.824219-8.242188-5.1875-15.59375-13.433593-16.417969-8.234376-.828125-15.59375 5.191406-16.417969 13.433593l-9.839844 98.414063-12.125-24.246094c-15.117187-30.234375-23.109375-64.085937-23.109375-97.890625 0-31.226562 6.769531-62.292968 19.671875-90.679687l18.621094 9.3125c5.238281 2.617187 11.523437 1.949219 16.09375-1.71875 4.570312-3.664063 6.585937-9.652344 5.167969-15.335938l-10.859376-43.4375 28.09375-47.488281c36.523438 50.222656 53.84375 111.277344 49.027344 174.128906zm0 0" fill="#FFFFFF"/><path d="m15 361c-8.285156 0-15 6.714844-15 15v121c0 8.285156 6.714844 15 15 15h240c8.285156 0 15-6.714844 15-15v-121c0-8.285156-6.714844-15-15-15h-45v-30h15c8.285156 0 15-6.714844 15-15v-60c0-8.285156-6.714844-15-15-15h-180c-8.285156 0-15 6.714844-15 15v60c0 8.285156 6.714844 15 15 15h15v30zm225 30v91h-210v-91zm-180-120h150v30h-150zm120 60v30h-90v-30zm0 0" fill="#FFFFFF"/></svg>
